#N canvas 827 239 527 327 12;
#X obj 227 210 hsl 128 15 -1 1 0 0 empty empty empty -2 8 0 10 #fcfcfc #000000 #000000 0 1;
#X obj 257 310 hsl 128 15 0 20 0 0 empty empty empty -2 8 0 10 #fcfcfc #000000 #000000 0 1;
#X obj 274 439 hsl 128 15 0 1 0 0 empty empty empty -2 8 0 10 #fcfcfc #000000 #000000 0 1;
#X obj 194 80 hsl 128 15 0 1 0 0 empty empty empty -2 8 0 10 #fcfcfc #000000 #000000 0 1;
#X msg 192 107 mix \$1, f 8;
#X msg 224 238 feedback \$1, f 12;
#X msg 254 332 speed \$1, f 10;
#X msg 271 461 intensity \$1;
#X text 317 230 // -1..1, f 6;
#X text 316 332 // 0..20 Hz, f 10;
#X text 356 463 // 0..1, f 6;
#X text 225 529 // arg \$1 delay time, f 16;
#X text 261 106 // 0..1 (0=dry), f 12;
#X obj 117 530 hv.flanger2~ 20;
#X obj 146 591 dac~, f 6;
#X obj 129 433 adc~, f 6;
#X obj 257 276 r Speed @hv_param 0 20 2;
#X obj 192 14 r Mix @hv_param 0 100 50;
#X obj 272 374 r Intensity @hv_param 0 100 20, f 29;
#X obj 192 47 / 100;
#X obj 225 149 r Feedback @hv_param -100 100 0, f 37;
#X obj 225 179 / 100;
#X obj 274 404 / 100;
#X connect 0 0 5 0 empty;
#X connect 1 0 6 0 empty;
#X connect 2 0 7 0 empty;
#X connect 3 0 4 0 empty;
#X connect 4 0 13 2 empty;
#X connect 5 0 13 2 empty;
#X connect 6 0 13 2 empty;
#X connect 7 0 13 2 empty;
#X connect 13 0 14 0 empty;
#X connect 13 1 14 1 empty;
#X connect 15 0 13 0 empty;
#X connect 15 1 13 1 empty;
#X connect 16 0 1 0 empty;
#X connect 17 0 19 0 empty;
#X connect 18 0 22 0 empty;
#X connect 19 0 3 0 empty;
#X connect 20 0 21 0 empty;
#X connect 21 0 0 0 empty;
#X connect 22 0 2 0 empty;
